General
Complete name                    : Torque 2004 BRRip 720P (English+Hindi)
Format                           : Matroska
File size                        : 1.13 GiB
Duration                         : 1h 24mn
Overall bit rate                 : 1 919 Kbps

Video
ID                               : 1
Format                           : AVC
Format/Info                      : Advanced Video Codec
Format profile                   : High@L4.1
Format settings, CABAC           : Yes
Format settings, ReFrames        : 6 frames
Muxing mode                      : Header stripping
Codec ID                         : V_MPEG4/ISO/AVC
Duration                         : 1h 24mn
Bit rate mode                    : Variable
Bit rate                         : 1 510 Kbps
Maximum bit rate                 : 30.0 Mbps
Width                            : 1 280 pixels
Height                           : 544 pixels
Display aspect ratio             : 2.35:1
Frame rate                       : 23.976 fps
Color space                      : YUV
Chroma subsampling               : 4:2:0
Bit depth                        : 8 bits
Scan type                        : Progressive
Bits/(Pixel*Frame)               : 0.090
Stream size                      : 880 MiB (76%)

Audio #1
ID                               : 2
Format                           : AC-3
Format/Info                      : Audio Coding 3
Mode extension                   : CM (complete main)
Muxing mode                      : Header stripping
Codec ID                         : A_AC3
Duration                         : 1h 24mn
Bit rate mode                    : Constant
Bit rate                         : 256 Kbps
Channel(s)                       : 6 channels
Channel positions                : Front: L C R, Side: L R, LFE
Sampling rate                    : 48.0 KHz
Bit depth                        : 16 bits
Compression mode                 : Lossy
Stream size                      : 154 MiB (13%)
Title                            : 5.1
Language                         : English

Audio #2
ID                               : 3
Format                           : AC-3
Format/Info                      : Audio Coding 3
Mode extension                   : CM (complete main)
Muxing mode                      : Header stripping
Codec ID                         : A_AC3
Duration                         : 1h 24mn
Bit rate mode                    : Constant
Bit rate                         : 160 Kbps
Channel(s)                       : 2 channels
Channel positions                : Front: L R
Sampling rate                    : 48.0 KHz
Bit depth                        : 16 bits
Compression mode                 : Lossy
Delay relative to video          : 500ms
Stream size                      : 96.1 MiB (8%)
Title                            : nsh168810
Language                         : Hindi



 
http://img42.imageshack.us/img42/8574/93210932.jpg 
http://img23.imageshack.us/img23/9585/44693649.jpg 
http://img19.imageshack.us/img19/8987/36500397.jpg 
http://img197.imageshack.us/img197/8902/62846456.jpg 
http://img217.imageshack.us/img217/8806/51849131.jpg 
http://img215.imageshack.us/img215/6374/20508176.jpg
